<svg xmlns="http://www.w3.org/2000/svg" width="20.691" height="20.691" viewBox="0 0 20.691 20.691">
  <path id="Path_20" data-name="Path 20" d="M155.667,138.391A4.179,4.179,0,0,0,153.272,136a6.982,6.982,0,0,0-2.343-.434c-1.331-.061-1.73-.074-5.1-.074s-3.769.013-5.1.073a6.986,6.986,0,0,0-2.343.435,4.181,4.181,0,0,0-2.4,2.395,6.984,6.984,0,0,0-.434,2.343c-.061,1.331-.074,1.73-.074,5.1s.013,3.768.074,5.1a6.982,6.982,0,0,0,.434,2.343,4.179,4.179,0,0,0,2.395,2.395,6.974,6.974,0,0,0,2.343.435c1.331.061,1.729.073,5.1.073s3.769-.013,5.1-.073a6.974,6.974,0,0,0,2.343-.435,4.179,4.179,0,0,0,2.395-2.395,6.988,6.988,0,0,0,.435-2.343c.061-1.331.073-1.73.073-5.1s-.013-3.769-.073-5.1A6.973,6.973,0,0,0,155.667,138.391Zm-9.837,13.922a6.48,6.48,0,1,1,6.48-6.48A6.48,6.48,0,0,1,145.83,152.313Zm6.736-11.7a1.514,1.514,0,1,1,1.514-1.514A1.514,1.514,0,0,1,152.566,140.612Zm0,0" transform="translate(-135.484 -135.488)" fill="#f8f8f8"/>
</svg>
